<svg width="288" height="259" viewBox="0 0 288 259" fill="none" xmlns="http://www.w3.org/2000/svg">
    <path fill-rule="evenodd" clip-rule="evenodd"
        d="M162.333 49.7071H261.616C276.005 49.7071 287.778 61.349 287.778 75.8687V232.838C287.778 247.227 276.005 259 261.616 259H26.1616C11.7727 259 0 247.227 0 232.838V75.8687C0 61.349 11.7727 49.7071 26.1616 49.7071H125.445L86.9874 11.2495C84.3712 8.63333 84.3712 4.57828 86.9874 1.96212C89.6035 -0.65404 93.6586 -0.65404 96.2747 1.96212L143.889 49.5763L191.503 1.96212C194.119 -0.65404 198.174 -0.65404 200.79 1.96212C203.407 4.57828 203.407 8.63333 200.79 11.2495L162.333 49.7071ZM39.2424 232.838H248.535C255.73 232.838 261.616 226.952 261.616 219.758V88.9495C261.616 81.7551 255.73 75.8687 248.535 75.8687H39.2424C32.048 75.8687 26.1616 81.7551 26.1616 88.9495V219.758C26.1616 226.952 32.048 232.838 39.2424 232.838Z"
        fill="#C3C3C3" />
    <path
        d="M124.268 195.558L176.329 165.734C185.093 160.763 185.093 148.075 176.329 142.973L124.268 113.149C115.504 108.179 104.646 114.588 104.646 124.53V184.047C104.646 194.119 115.504 200.529 124.268 195.558Z"
        fill="#F5C518" />
</svg>